<svg width="400" height="400" xmlns="http://www.w3.org/2000/svg">
 <g>
  <title>Layer 1</title>
  <path fill="#fff" stroke="#000" opacity="NaN" d="m365,188" id="svg_2"/>
  <path fill="#fff" stroke="#000" opacity="NaN" d="m799,369c6,-5 21,47 -6,11" id="svg_3"/>
  <path fill="#fff" stroke="#000" opacity="NaN" d="m805,384" id="svg_4"/>
  <path fill="#fff" stroke="#000" d="m826.925,455.71733c-0.04014,0 -0.07267,0.03254 -0.07267,0.07267c0,0.04014 0.03254,0.07267 0.07267,0.07267c0.04014,0 0.07267,-0.03254 0.07267,-0.07267c0,-0.04014 -0.03254,-0.07267 -0.07267,-0.07267zm0,0.13034c-0.03181,0 -0.05767,-0.02587 -0.05767,-0.05767c0,-0.0318 0.02587,-0.05767 0.05767,-0.05767c0.03181,0 0.05767,0.02587 0.05767,0.05767c0,0.03181 -0.02587,0.05767 -0.05767,0.05767zm-0.00001,-0.11204c-0.00277,0 -0.005,0.00224 -0.005,0.005l0,0.04611l-0.03023,0.01322c-0.00253,0.00111 -0.00368,0.00406 -0.00257,0.00659c0.00082,0.00188 0.00265,0.003 0.00458,0.003c0.00067,0 0.00136,-0.00014 0.00201,-0.00043l0.03313,-0.01449c0.00003,-0.00001 0.00005,-0.00002 0.00007,-0.00003l0.00002,-0.00001c0.00008,-0.00003 0.00012,-0.0001 0.00019,-0.00013c0.00052,-0.00026 0.00101,-0.00057 0.0014,-0.00098c0.00017,-0.00017 0.00027,-0.00039 0.0004,-0.00059c0.00024,-0.00032 0.00051,-0.00064 0.00065,-0.00102c0.00012,-0.0003 0.00013,-0.00063 0.00019,-0.00095c0.00007,-0.00033 0.00019,-0.00061 0.00019,-0.00094l0,-0.04938c0,-0.00276 -0.00224,-0.005 -0.00501,-0.005l-0.00002,0.00003z" id="svg_5"/>
  <path fill="#fff" stroke="#000" d="m901.55,545.26733c-0.04014,0 -0.07267,0.03254 -0.07267,0.07267c0,0.04014 0.03254,0.07267 0.07267,0.07267c0.04014,0 0.07267,-0.03254 0.07267,-0.07267c0,-0.04014 -0.03254,-0.07267 -0.07267,-0.07267zm0,0.13034c-0.03181,0 -0.05767,-0.02587 -0.05767,-0.05767c0,-0.0318 0.02587,-0.05767 0.05767,-0.05767c0.03181,0 0.05767,0.02587 0.05767,0.05767c0,0.03181 -0.02587,0.05767 -0.05767,0.05767zm-0.00001,-0.11204c-0.00277,0 -0.005,0.00224 -0.005,0.005l0,0.04611l-0.03023,0.01322c-0.00253,0.00111 -0.00368,0.00406 -0.00257,0.00659c0.00082,0.00188 0.00265,0.003 0.00458,0.003c0.00067,0 0.00136,-0.00014 0.00201,-0.00043l0.03313,-0.01449c0.00003,-0.00001 0.00005,-0.00002 0.00007,-0.00003l0.00002,-0.00001c0.00008,-0.00003 0.00012,-0.0001 0.00019,-0.00013c0.00052,-0.00026 0.00101,-0.00057 0.0014,-0.00098c0.00017,-0.00017 0.00027,-0.00039 0.0004,-0.00059c0.00024,-0.00032 0.00051,-0.00064 0.00065,-0.00102c0.00012,-0.0003 0.00013,-0.00063 0.00019,-0.00095c0.00007,-0.00033 0.00019,-0.00061 0.00019,-0.00094l0,-0.04938c0,-0.00276 -0.00224,-0.005 -0.00501,-0.005l-0.00002,0.00003z" id="svg_6"/>
  <path fill="#fff" stroke="#000" d="m867.72,482.58233c-0.04014,0 -0.07267,0.03254 -0.07267,0.07267c0,0.04014 0.03254,0.07267 0.07267,0.07267c0.04014,0 0.07267,-0.03254 0.07267,-0.07267c0,-0.04014 -0.03254,-0.07267 -0.07267,-0.07267zm0,0.13034c-0.03181,0 -0.05767,-0.02587 -0.05767,-0.05767c0,-0.0318 0.02587,-0.05767 0.05767,-0.05767c0.03181,0 0.05767,0.02587 0.05767,0.05767c0,0.03181 -0.02587,0.05767 -0.05767,0.05767zm-0.00001,-0.11204c-0.00277,0 -0.005,0.00224 -0.005,0.005l0,0.04611l-0.03023,0.01322c-0.00253,0.00111 -0.00368,0.00406 -0.00257,0.00659c0.00082,0.00188 0.00265,0.003 0.00458,0.003c0.00067,0 0.00136,-0.00014 0.00201,-0.00043l0.03313,-0.01449c0.00003,-0.00001 0.00005,-0.00002 0.00007,-0.00003l0.00002,-0.00001c0.00008,-0.00003 0.00012,-0.0001 0.00019,-0.00013c0.00052,-0.00026 0.00101,-0.00057 0.0014,-0.00098c0.00017,-0.00017 0.00027,-0.00039 0.0004,-0.00059c0.00024,-0.00032 0.00051,-0.00064 0.00065,-0.00102c0.00012,-0.0003 0.00013,-0.00063 0.00019,-0.00095c0.00007,-0.00033 0.00019,-0.00061 0.00019,-0.00094l0,-0.04938c0,-0.00276 -0.00224,-0.005 -0.00501,-0.005l-0.00002,0.00003z" id="svg_7"/>
  <path fill="#fff" stroke="#000" d="m821.95,525.36733c-0.04014,0 -0.07267,0.03254 -0.07267,0.07267c0,0.04014 0.03254,0.07267 0.07267,0.07267c0.04014,0 0.07267,-0.03254 0.07267,-0.07267c0,-0.04014 -0.03254,-0.07267 -0.07267,-0.07267zm0,0.13034c-0.03181,0 -0.05767,-0.02587 -0.05767,-0.05767c0,-0.0318 0.02587,-0.05767 0.05767,-0.05767c0.03181,0 0.05767,0.02587 0.05767,0.05767c0,0.03181 -0.02587,0.05767 -0.05767,0.05767zm-0.00001,-0.11204c-0.00277,0 -0.005,0.00224 -0.005,0.005l0,0.04611l-0.03023,0.01322c-0.00253,0.00111 -0.00368,0.00406 -0.00257,0.00659c0.00082,0.00188 0.00265,0.003 0.00458,0.003c0.00067,0 0.00136,-0.00014 0.00201,-0.00043l0.03313,-0.01449c0.00003,-0.00001 0.00005,-0.00002 0.00007,-0.00003l0.00002,-0.00001c0.00008,-0.00003 0.00012,-0.0001 0.00019,-0.00013c0.00052,-0.00026 0.00101,-0.00057 0.0014,-0.00098c0.00017,-0.00017 0.00027,-0.00039 0.0004,-0.00059c0.00024,-0.00032 0.00051,-0.00064 0.00065,-0.00102c0.00012,-0.0003 0.00013,-0.00063 0.00019,-0.00095c0.00007,-0.00033 0.00019,-0.00061 0.00019,-0.00094l0,-0.04938c0,-0.00276 -0.00224,-0.005 -0.00501,-0.005l-0.00002,0.00003z" id="svg_8"/>
  <path fill="#fff" stroke="#000" d="m895.58,536.31233c-0.04014,0 -0.07267,0.03254 -0.07267,0.07267c0,0.04014 0.03254,0.07267 0.07267,0.07267c0.04014,0 0.07267,-0.03254 0.07267,-0.07267c0,-0.04014 -0.03254,-0.07267 -0.07267,-0.07267zm0,0.13034c-0.03181,0 -0.05767,-0.02587 -0.05767,-0.05767c0,-0.0318 0.02587,-0.05767 0.05767,-0.05767c0.03181,0 0.05767,0.02587 0.05767,0.05767c0,0.03181 -0.02587,0.05767 -0.05767,0.05767zm-0.00001,-0.11204c-0.00277,0 -0.005,0.00224 -0.005,0.005l0,0.04611l-0.03023,0.01322c-0.00253,0.00111 -0.00368,0.00406 -0.00257,0.00659c0.00082,0.00188 0.00265,0.003 0.00458,0.003c0.00067,0 0.00136,-0.00014 0.00201,-0.00043l0.03313,-0.01449c0.00003,-0.00001 0.00005,-0.00002 0.00007,-0.00003l0.00002,-0.00001c0.00008,-0.00003 0.00012,-0.0001 0.00019,-0.00013c0.00052,-0.00026 0.00101,-0.00057 0.0014,-0.00098c0.00017,-0.00017 0.00027,-0.00039 0.0004,-0.00059c0.00024,-0.00032 0.00051,-0.00064 0.00065,-0.00102c0.00012,-0.0003 0.00013,-0.00063 0.00019,-0.00095c0.00007,-0.00033 0.00019,-0.00061 0.00019,-0.00094l0,-0.04938c0,-0.00276 -0.00224,-0.005 -0.00501,-0.005l-0.00002,0.00003z" id="svg_9"/>
  <path fill="#fff" stroke="#000" d="m685.635,408.95233c-0.04014,0 -0.07267,0.03254 -0.07267,0.07267c0,0.04014 0.03254,0.07267 0.07267,0.07267c0.04014,0 0.07267,-0.03254 0.07267,-0.07267c0,-0.04014 -0.03254,-0.07267 -0.07267,-0.07267zm0,0.13034c-0.03181,0 -0.05767,-0.02587 -0.05767,-0.05767c0,-0.0318 0.02587,-0.05767 0.05767,-0.05767c0.03181,0 0.05767,0.02587 0.05767,0.05767c0,0.03181 -0.02587,0.05767 -0.05767,0.05767zm-0.00001,-0.11204c-0.00277,0 -0.005,0.00224 -0.005,0.005l0,0.04611l-0.03023,0.01322c-0.00253,0.00111 -0.00368,0.00406 -0.00257,0.00659c0.00082,0.00188 0.00265,0.003 0.00458,0.003c0.00067,0 0.00136,-0.00014 0.00201,-0.00043l0.03313,-0.01449c0.00003,-0.00001 0.00005,-0.00002 0.00007,-0.00003l0.00002,-0.00001c0.00008,-0.00003 0.00012,-0.0001 0.00019,-0.00013c0.00052,-0.00026 0.00101,-0.00057 0.0014,-0.00098c0.00017,-0.00017 0.00027,-0.00039 0.0004,-0.00059c0.00024,-0.00032 0.00051,-0.00064 0.00065,-0.00102c0.00012,-0.0003 0.00013,-0.00063 0.00019,-0.00095c0.00007,-0.00033 0.00019,-0.00061 0.00019,-0.00094l0,-0.04938c0,-0.00276 -0.00224,-0.005 -0.00501,-0.005l-0.00002,0.00003z" id="svg_10"/>
  <path fill="#fff" stroke="#000" d="m890.605,440.79233c-0.04014,0 -0.07267,0.03254 -0.07267,0.07267c0,0.04014 0.03254,0.07267 0.07267,0.07267c0.04014,0 0.07267,-0.03254 0.07267,-0.07267c0,-0.04014 -0.03254,-0.07267 -0.07267,-0.07267zm0,0.13034c-0.03181,0 -0.05767,-0.02587 -0.05767,-0.05767c0,-0.0318 0.02587,-0.05767 0.05767,-0.05767c0.03181,0 0.05767,0.02587 0.05767,0.05767c0,0.03181 -0.02587,0.05767 -0.05767,0.05767zm-0.00001,-0.11204c-0.00277,0 -0.005,0.00224 -0.005,0.005l0,0.04611l-0.03023,0.01322c-0.00253,0.00111 -0.00368,0.00406 -0.00257,0.00659c0.00082,0.00188 0.00265,0.003 0.00458,0.003c0.00067,0 0.00136,-0.00014 0.00201,-0.00043l0.03313,-0.01449c0.00003,-0.00001 0.00005,-0.00002 0.00007,-0.00003l0.00002,-0.00001c0.00008,-0.00003 0.00012,-0.0001 0.00019,-0.00013c0.00052,-0.00026 0.00101,-0.00057 0.0014,-0.00098c0.00017,-0.00017 0.00027,-0.00039 0.0004,-0.00059c0.00024,-0.00032 0.00051,-0.00064 0.00065,-0.00102c0.00012,-0.0003 0.00013,-0.00063 0.00019,-0.00095c0.00007,-0.00033 0.00019,-0.00061 0.00019,-0.00094l0,-0.04938c0,-0.00276 -0.00224,-0.005 -0.00501,-0.005l-0.00002,0.00003z" id="svg_11"/>
  <path fill="#fff" stroke="#000" d="m812.995,417.90733c-0.04014,0 -0.07267,0.03254 -0.07267,0.07267c0,0.04014 0.03254,0.07267 0.07267,0.07267c0.04014,0 0.07267,-0.03254 0.07267,-0.07267c0,-0.04014 -0.03254,-0.07267 -0.07267,-0.07267zm0,0.13034c-0.03181,0 -0.05767,-0.02587 -0.05767,-0.05767c0,-0.0318 0.02587,-0.05767 0.05767,-0.05767c0.03181,0 0.05767,0.02587 0.05767,0.05767c0,0.03181 -0.02587,0.05767 -0.05767,0.05767zm-0.00001,-0.11204c-0.00277,0 -0.005,0.00224 -0.005,0.005l0,0.04611l-0.03023,0.01322c-0.00253,0.00111 -0.00368,0.00406 -0.00257,0.00659c0.00082,0.00188 0.00265,0.003 0.00458,0.003c0.00067,0 0.00136,-0.00014 0.00201,-0.00043l0.03313,-0.01449c0.00003,-0.00001 0.00005,-0.00002 0.00007,-0.00003l0.00002,-0.00001c0.00008,-0.00003 0.00012,-0.0001 0.00019,-0.00013c0.00052,-0.00026 0.00101,-0.00057 0.0014,-0.00098c0.00017,-0.00017 0.00027,-0.00039 0.0004,-0.00059c0.00024,-0.00032 0.00051,-0.00064 0.00065,-0.00102c0.00012,-0.0003 0.00013,-0.00063 0.00019,-0.00095c0.00007,-0.00033 0.00019,-0.00061 0.00019,-0.00094l0,-0.04938c0,-0.00276 -0.00224,-0.005 -0.00501,-0.005l-0.00002,0.00003z" id="svg_12"/>
  <path fill="#fff" stroke="#000" d="m814.985,435.81733c-0.04014,0 -0.07267,0.03254 -0.07267,0.07267c0,0.04014 0.03254,0.07267 0.07267,0.07267c0.04014,0 0.07267,-0.03254 0.07267,-0.07267c0,-0.04014 -0.03254,-0.07267 -0.07267,-0.07267zm0,0.13034c-0.03181,0 -0.05767,-0.02587 -0.05767,-0.05767c0,-0.0318 0.02587,-0.05767 0.05767,-0.05767c0.03181,0 0.05767,0.02587 0.05767,0.05767c0,0.03181 -0.02587,0.05767 -0.05767,0.05767zm-0.00001,-0.11204c-0.00277,0 -0.005,0.00224 -0.005,0.005l0,0.04611l-0.03023,0.01322c-0.00253,0.00111 -0.00368,0.00406 -0.00257,0.00659c0.00082,0.00188 0.00265,0.003 0.00458,0.003c0.00067,0 0.00136,-0.00014 0.00201,-0.00043l0.03313,-0.01449c0.00003,-0.00001 0.00005,-0.00002 0.00007,-0.00003l0.00002,-0.00001c0.00008,-0.00003 0.00012,-0.0001 0.00019,-0.00013c0.00052,-0.00026 0.00101,-0.00057 0.0014,-0.00098c0.00017,-0.00017 0.00027,-0.00039 0.0004,-0.00059c0.00024,-0.00032 0.00051,-0.00064 0.00065,-0.00102c0.00012,-0.0003 0.00013,-0.00063 0.00019,-0.00095c0.00007,-0.00033 0.00019,-0.00061 0.00019,-0.00094l0,-0.04938c0,-0.00276 -0.00224,-0.005 -0.00501,-0.005l-0.00002,0.00003z" id="svg_13"/>
  <path fill="#fff" stroke="#000" d="m811.005,460.69233c-0.04014,0 -0.07267,0.03254 -0.07267,0.07267c0,0.04014 0.03254,0.07267 0.07267,0.07267c0.04014,0 0.07267,-0.03254 0.07267,-0.07267c0,-0.04014 -0.03254,-0.07267 -0.07267,-0.07267zm0,0.13034c-0.03181,0 -0.05767,-0.02587 -0.05767,-0.05767c0,-0.0318 0.02587,-0.05767 0.05767,-0.05767c0.03181,0 0.05767,0.02587 0.05767,0.05767c0,0.03181 -0.02587,0.05767 -0.05767,0.05767zm-0.00001,-0.11204c-0.00277,0 -0.005,0.00224 -0.005,0.005l0,0.04611l-0.03023,0.01322c-0.00253,0.00111 -0.00368,0.00406 -0.00257,0.00659c0.00082,0.00188 0.00265,0.003 0.00458,0.003c0.00067,0 0.00136,-0.00014 0.00201,-0.00043l0.03313,-0.01449c0.00003,-0.00001 0.00005,-0.00002 0.00007,-0.00003l0.00002,-0.00001c0.00008,-0.00003 0.00012,-0.0001 0.00019,-0.00013c0.00052,-0.00026 0.00101,-0.00057 0.0014,-0.00098c0.00017,-0.00017 0.00027,-0.00039 0.0004,-0.00059c0.00024,-0.00032 0.00051,-0.00064 0.00065,-0.00102c0.00012,-0.0003 0.00013,-0.00063 0.00019,-0.00095c0.00007,-0.00033 0.00019,-0.00061 0.00019,-0.00094l0,-0.04938c0,-0.00276 -0.00224,-0.005 -0.00501,-0.005l-0.00002,0.00003z" id="svg_14"/>
  <path fill="#fff" stroke="#000" d="m834.885,520.39233c-0.04014,0 -0.07267,0.03254 -0.07267,0.07267c0,0.04014 0.03254,0.07267 0.07267,0.07267c0.04014,0 0.07267,-0.03254 0.07267,-0.07267c0,-0.04014 -0.03254,-0.07267 -0.07267,-0.07267zm0,0.13034c-0.03181,0 -0.05767,-0.02587 -0.05767,-0.05767c0,-0.0318 0.02587,-0.05767 0.05767,-0.05767c0.03181,0 0.05767,0.02587 0.05767,0.05767c0,0.03181 -0.02587,0.05767 -0.05767,0.05767zm-0.00001,-0.11204c-0.00277,0 -0.005,0.00224 -0.005,0.005l0,0.04611l-0.03023,0.01322c-0.00253,0.00111 -0.00368,0.00406 -0.00257,0.00659c0.00082,0.00188 0.00265,0.003 0.00458,0.003c0.00067,0 0.00136,-0.00014 0.00201,-0.00043l0.03313,-0.01449c0.00003,-0.00001 0.00005,-0.00002 0.00007,-0.00003l0.00002,-0.00001c0.00008,-0.00003 0.00012,-0.0001 0.00019,-0.00013c0.00052,-0.00026 0.00101,-0.00057 0.0014,-0.00098c0.00017,-0.00017 0.00027,-0.00039 0.0004,-0.00059c0.00024,-0.00032 0.00051,-0.00064 0.00065,-0.00102c0.00012,-0.0003 0.00013,-0.00063 0.00019,-0.00095c0.00007,-0.00033 0.00019,-0.00061 0.00019,-0.00094l0,-0.04938c0,-0.00276 -0.00224,-0.005 -0.00501,-0.005l-0.00002,0.00003z" id="svg_15"/>
  <path transform="rotate(-180 195.845 237.47)" stroke="#256e5c" id="svg_19" d="m93.34501,343.96998l0,-119.81249l0,0c0,-51.46603 40.15446,-93.1875 89.68751,-93.1875l0,0l0,0c23.7866,0 46.59897,9.81794 63.41866,27.29399c16.81967,17.47604 26.26885,41.17865 26.26885,65.89351l0,13.3125l25.62498,0l-51.24997,53.25002l-51.25002,-53.25002l25.625,0l0,-13.3125c0,-22.05687 -17.20906,-39.93749 -38.43749,-39.93749l0,0l0,0c-21.22846,0 -38.43751,17.88062 -38.43751,39.93749l0,119.81249l-51.25002,0z" fill="#2e947a"/>
  <rect rx="25" id="svg_20" height="74" width="211" y="59" x="110" stroke="#256e5c" fill="#2e947a"/>
 </g>

</svg>